<svg id="Layer_1" data-name="Layer 1" xmlns="http://www.w3.org/2000/svg" viewBox="0 0 810 96.12"><title>stvnrlnd-type-rbg-black</title><path d="M127.28,114q-5.76,0-8.94,2.28a7.86,7.86,0,0,0-3.18,6.84q0,4.2,4.62,7.38a57.66,57.66,0,0,0,12.3,6.06,51.09,51.09,0,0,1,10.68,5.22,23.36,23.36,0,0,1,7.38,8.1q2.94,5.16,2.94,13.08a23.91,23.91,0,0,1-3.54,12.66,24.7,24.7,0,0,1-10.38,9.24,36.12,36.12,0,0,1-16.32,3.42,54.44,54.44,0,0,1-15.72-2.34A49.11,49.11,0,0,1,92.6,178.8l7.68-13.56a41.74,41.74,0,0,0,10.44,5.52,31,31,0,0,0,10.56,2.16,19,19,0,0,0,9.6-2.34Q135,168.24,135,163q0-6.84-12.84-11.88a115,115,0,0,1-12.6-5.76,25.92,25.92,0,0,1-8.7-7.92q-3.66-5.16-3.66-13,0-11.4,7.5-18.36t20-7.56a52.18,52.18,0,0,1,16.44,2.22,56.15,56.15,0,0,1,12.84,6.3l-6.6,13.32Q135.8,114,127.28,114Z" transform="translate(-92.6 -92.64)"/><path d="M189.08,111.84v22.8H201.8v13.08H189.08v39.6h-16.8v-39.6h-8.16V134.64h8.16v-22.8Z" transform="translate(-92.6 -92.64)"/><path d="M251.24,171l7.44,12.48a45.85,45.85,0,0,1-9.12,3.84,31.76,31.76,0,0,1-9.12,1.44,34.45,34.45,0,0,1-16.14-3.54,24,24,0,0,1-10.26-10,30.35,30.35,0,0,1-3.48-14.7,26.35,26.35,0,0,1,4-14.16,28.86,28.86,0,0,1,11-10.26,31.42,31.42,0,0,1,15.24-3.78q11.28,0,18.54,6.6t9.42,18.84L230.36,170a13.09,13.09,0,0,0,10.44,4.44A19.32,19.32,0,0,0,251.24,171Zm-20.76-21.72q-3.36,3.84-3.36,10.32v1.08l23-7.8q-2.52-7.44-10.68-7.44A11.36,11.36,0,0,0,230.48,149.28Z" transform="translate(-92.6 -92.64)"/><path d="M332.84,134.88,303.08,188.4h-.48l-31.44-53.52h19.92l12.24,25,10.8-25Z" transform="translate(-92.6 -92.64)"/><path d="M377.48,171l7.44,12.48a45.85,45.85,0,0,1-9.12,3.84,31.76,31.76,0,0,1-9.12,1.44,34.45,34.45,0,0,1-16.14-3.54,24,24,0,0,1-10.26-10,30.35,30.35,0,0,1-3.48-14.7,26.35,26.35,0,0,1,4-14.16,28.86,28.86,0,0,1,11-10.26A31.42,31.42,0,0,1,367,132.36q11.28,0,18.54,6.6T395,157.8L356.6,170A13.09,13.09,0,0,0,367,174.48,19.32,19.32,0,0,0,377.48,171Zm-20.76-21.72q-3.36,3.84-3.36,10.32v1.08l23-7.8q-2.52-7.44-10.68-7.44A11.36,11.36,0,0,0,356.72,149.28Z" transform="translate(-92.6 -92.64)"/><path d="M456.14,136.8a14.82,14.82,0,0,1,5.1,11.28v39.24h-16.8v-33q-.36-7.68-7.68-7.68-5.76,0-9.24,5.4T424,166v21.36h-16.8V134.88h15.24l1.2,8.4a20.56,20.56,0,0,1,8-8,24.13,24.13,0,0,1,12.06-2.88A18,18,0,0,1,456.14,136.8Z" transform="translate(-92.6 -92.64)"/><path d="M567.92,187.32l-18.6-28.08H537.68v28.08h-17.4V99H547q16.44,0,25.5,8t9.06,21.78a35,35,0,0,1-3.42,15.3,25.38,25.38,0,0,1-10.5,11.22l20.52,32Zm-30.24-44.88H550q7.08,0,10.32-4.14a14.22,14.22,0,0,0,3.24-8.94,17,17,0,0,0-2.76-9.18q-2.76-4.38-10.68-4.38H537.68Z" transform="translate(-92.6 -92.64)"/><path d="M597.14,146a26.64,26.64,0,0,1,10.68-10,32.9,32.9,0,0,1,15.66-3.66A31.5,31.5,0,0,1,638.9,136a25.77,25.77,0,0,1,10.26,10,28.72,28.72,0,0,1,3.6,14.4,29.39,29.39,0,0,1-3.6,14.52A25.55,25.55,0,0,1,638.9,185.1a32,32,0,0,1-15.66,3.66,34,34,0,0,1-15.54-3.42,25.21,25.21,0,0,1-10.56-9.78,29.06,29.06,0,0,1-3.78-15.12A27.64,27.64,0,0,1,597.14,146Zm16.74,24.9a11.56,11.56,0,0,0,9.12,4.14,11.72,11.72,0,0,0,9.3-4.08,17.16,17.16,0,0,0,0-20.88A11.72,11.72,0,0,0,623,146a11.56,11.56,0,0,0-9.12,4.14,16.76,16.76,0,0,0,0,20.76Z" transform="translate(-92.6 -92.64)"/><path d="M682.76,92.64v94.68H666V92.64Z" transform="translate(-92.6 -92.64)"/><path d="M756.44,134.88v52.44h-16.8v-6.48q-7.56,7.92-17.52,7.92-11.64,0-18.9-7T696,161.16A31.4,31.4,0,0,1,699.5,146a26.23,26.23,0,0,1,9.42-10.14,23.71,23.71,0,0,1,12.6-3.6q7,0,11,2.1a22.54,22.54,0,0,1,7.2,5.94l1.08-5.4Zm-16.8,32.28V154.32a12.24,12.24,0,0,0-5-6.12,15.06,15.06,0,0,0-8.34-2.28A12.56,12.56,0,0,0,716.9,150a14.33,14.33,0,0,0-3.9,10.32,15.06,15.06,0,0,0,1.92,7.5,14.24,14.24,0,0,0,5.1,5.34,13.11,13.11,0,0,0,6.9,1.92Q735.68,175.08,739.64,167.16Z" transform="translate(-92.6 -92.64)"/><path d="M822.62,136.8a14.82,14.82,0,0,1,5.1,11.28v39.24h-16.8v-33q-.36-7.68-7.68-7.68-5.76,0-9.24,5.4T790.52,166v21.36h-16.8V134.88H789l1.2,8.4a20.56,20.56,0,0,1,8-8,24.13,24.13,0,0,1,12.06-2.88A18,18,0,0,1,822.62,136.8Z" transform="translate(-92.6 -92.64)"/><path d="M902.6,92.64v94.68H885.8V181.8a31.49,31.49,0,0,1-19.44,7,24.79,24.79,0,0,1-13.08-3.48,24.08,24.08,0,0,1-9.06-10,33.18,33.18,0,0,1-3.3-15.24,30,30,0,0,1,3.54-14.94,23.79,23.79,0,0,1,9.78-9.6,30.08,30.08,0,0,1,14.28-3.3,28.82,28.82,0,0,1,9.72,1.62,20.28,20.28,0,0,1,7.68,4.74v-46Zm-22.32,80a15,15,0,0,0,5.52-5.94V153.84a12,12,0,0,0-5.16-6.12,16.43,16.43,0,0,0-8.76-2.28,13.47,13.47,0,0,0-9.78,4.08A13.88,13.88,0,0,0,858,159.84a15.06,15.06,0,0,0,1.92,7.5,14.24,14.24,0,0,0,5.1,5.34,13.11,13.11,0,0,0,6.9,1.92A16.32,16.32,0,0,0,880.28,172.62Z" transform="translate(-92.6 -92.64)"/></svg>