<svg id="Layer_2" data-name="Layer 2" xmlns="http://www.w3.org/2000/svg" viewBox="0 0 650 650"><defs><style>.cls-1{fill:#09c;}</style></defs><title>stvnrlnd-mark-rgb-blue</title><path class="cls-1" d="M501,825a25,25,0,0,1-17.71-42.65L771.41,493.27l-82.34-247-71.39,71.4A25,25,0,0,1,600,325H400a25,25,0,0,1-17.68-7.32l-71.39-71.4L229.76,489.79,513.87,679.2a25,25,0,0,1-27.74,41.6l-300-200a25,25,0,0,1-9.85-28.71l100-300a25,25,0,0,1,41.4-9.77L410.36,275H589.64l92.68-92.68a25,25,0,0,1,41.4,9.77l100,300a25,25,0,0,1-6,25.56l-299,300A24.94,24.94,0,0,1,501,825Z" transform="translate(-175 -175)"/></svg>